<?xml version="1.0" encoding="UTF-8"?>
<svg version="1.1" xmlns="http://www.w3.org/2000/svg" width="500" height="500">
<path d="M0 0 C165 0 330 0 500 0 C500 165 500 330 500 500 C335 500 170 500 0 500 C0 335 0 170 0 0 Z " fill="none" transform="translate(0,0)"/>
<path d="M0 0 C1.8867137 2.83007054 3.16138189 5.53535493 4.5625 8.625 C14.82438171 29.07493693 41.22497586 39.59624168 61.8125 46.6875 C85.44735595 54.39353715 110.34524066 58.39496747 135 61 C135.79025574 61.08613556 136.58051147 61.17227112 137.39471436 61.26101685 C151.74220746 62.8004219 165.94953032 63.36550919 180.375 63.3125 C181.4155957 63.31067719 182.45619141 63.30885437 183.52832031 63.30697632 C201.53281041 63.25423416 219.13814791 62.34693177 237 60 C238.29679688 59.83902832 239.59359375 59.67805664 240.9296875 59.51220703 C278.39040955 54.81416457 328.51065474 45.5026525 354 15 C357.25021105 10.5913804 359.53781918 6.31702117 361 1 C361.33 1 361.66 1 362 1 C362.09132711 29.49341939 362.16207824 57.98682032 362.20426132 86.48035752 C362.20926391 89.84725682 362.21444122 93.21415582 362.21972656 96.58105469 C362.2207758 97.25131991 362.22182505 97.92158513 362.22290608 98.61216141 C362.24029283 109.45304911 362.27182091 120.29385161 362.30861118 131.13468884 C362.34606889 142.26535038 362.3679468 153.39597726 362.37635398 164.52670014 C362.38156485 170.77575731 362.39379687 177.02462151 362.42292023 183.27361679 C362.45012458 189.15868235 362.45843471 195.04347594 362.45243073 200.9285984 C362.4535287 203.08523983 362.46145241 205.24189061 362.4768219 207.39847755 C362.49682811 210.35117703 362.49190025 213.30285996 362.48101807 216.25558472 C362.49266943 217.10191967 362.5043208 217.94825462 362.51632524 218.82023609 C362.40277752 230.27844559 356.94857786 239.06277725 349 247 C314.88037325 276.43844856 262.51750295 284.84104257 219 288 C217.25553589 288.12810059 217.25553589 288.12810059 215.47583008 288.25878906 C151.72679261 292.62581028 65.58541276 290.95681514 13.96484375 247.44140625 C5.23890495 239.34965412 -0.10207509 230.6929068 -0.66494536 218.59388864 C-0.76707856 213.65339414 -0.73401482 208.71898382 -0.68115234 203.77807617 C-0.67945741 201.54958645 -0.68041476 199.32109338 -0.68380737 197.09260559 C-0.68552082 191.07674058 -0.65037569 185.06160111 -0.60836363 179.04590392 C-0.57072117 172.74656769 -0.56732061 166.44721273 -0.56021118 160.14778137 C-0.54371309 149.58561977 -0.5062989 139.02369439 -0.45263672 128.46166992 C-0.39745394 117.58896188 -0.35503686 106.7163259 -0.32958984 95.84350586 C-0.3280135 95.17186026 -0.32643716 94.50021467 -0.32481305 93.80821618 C-0.3169821 90.43833477 -0.30940002 87.06845286 -0.30194163 83.69857061 C-0.2393157 55.79886315 -0.13385707 27.89945025 0 0 Z " fill="#064D6D" transform="translate(69,134)"/>
<path d="M0 0 C1.09852295 0.217771 1.09852295 0.217771 2.21923828 0.43994141 C22.41222142 4.51615011 42.58733241 10.72358945 61 20 C61.69802734 20.34643555 62.39605469 20.69287109 63.11523438 21.04980469 C77.47174144 28.28098543 90.90689305 37.87681932 96.875 53.4375 C99.08084733 61.03248332 98.82213207 67.74790873 95.26171875 74.84375 C93.1272742 78.49146948 90.73035114 81.77685378 88 85 C87.53335937 85.56203125 87.06671875 86.1240625 86.5859375 86.703125 C69.79459907 105.13054256 43.07416163 112.48341016 20 119 C19.15566406 119.24733887 18.31132812 119.49467773 17.44140625 119.74951172 C0.6647574 124.63804854 -16.70304094 126.81501689 -34 129 C-35.58530518 129.20351074 -35.58530518 129.20351074 -37.20263672 129.41113281 C-70.58709301 133.46361426 -105.71197576 132.3453772 -139 128 C-140.11842285 127.86078125 -141.2368457 127.7215625 -142.38916016 127.578125 C-177.8500245 123.0691939 -221.46959612 114.72594848 -249 90 C-249.74894531 89.36964844 -250.49789062 88.73929687 -251.26953125 88.08984375 C-257.74988677 82.23468023 -263.11835931 73.50628513 -264.30859375 64.72265625 C-264.82033472 54.16218349 -260.41265647 46.47138972 -253.625 38.625 C-197.96130841 -19.34647317 -72.43934472 -14.83662406 0 0 Z " fill="#A3B9FA" transform="translate(333,67)"/>
<path d="M0 0 C1.8867137 2.83007054 3.16138189 5.53535493 4.5625 8.625 C14.82438171 29.07493693 41.22497586 39.59624168 61.8125 46.6875 C85.44735595 54.39353715 110.34524066 58.39496747 135 61 C135.79025574 61.08613556 136.58051147 61.17227112 137.39471436 61.26101685 C151.74220746 62.8004219 165.94953032 63.36550919 180.375 63.3125 C181.4155957 63.31067719 182.45619141 63.30885437 183.52832031 63.30697632 C201.53281041 63.25423416 219.13814791 62.34693177 237 60 C238.29679688 59.83902832 239.59359375 59.67805664 240.9296875 59.51220703 C278.39040955 54.81416457 328.51065474 45.5026525 354 15 C357.25021105 10.5913804 359.53781918 6.31702117 361 1 C361.33 1 361.66 1 362 1 C362.09309203 10.19758785 362.16396228 19.39501102 362.20724869 28.59296894 C362.22803457 32.86496555 362.25618527 37.13663746 362.30175781 41.40844727 C362.34553989 45.53874546 362.3692046 49.66873331 362.37950897 53.79924583 C362.38684278 55.36716782 362.40116247 56.93507476 362.42292023 58.50286293 C362.62150344 73.41891768 359.76011124 83.74751717 349.33203125 94.76171875 C308.50661985 133.42419444 234.96601142 137.66608688 182.04296875 137.3225708 C179.216188 137.30904985 176.38956197 137.31443055 173.56276321 137.3194313 C158.28406326 137.33990154 143.16391592 137.03900229 128 135 C126.78787842 134.84345947 125.57575684 134.68691895 124.3269043 134.52563477 C121.16943321 134.09451363 118.02253098 133.62315035 114.875 133.125 C113.77663818 132.95282959 112.67827637 132.78065918 111.54663086 132.60327148 C103.00234942 131.22971531 94.55863 129.59672417 86.15527344 127.52978516 C84.68372396 127.16806536 83.21030255 126.81389838 81.73535156 126.46630859 C53.98334607 119.91067078 20.4225994 109.13644709 4.171875 83.99609375 C3.40432297 82.68869679 2.67800043 81.35600086 2 80 C1.67 100.13 1.34 120.26 1 141 C0.67 141 0.34 141 0 141 C0 94.47 0 47.94 0 0 Z " fill="#1986CE" transform="translate(69,134)"/>
<path d="M0 0 C0.33 0 0.66 0 1 0 C1.0930829 9.32797263 1.16395774 18.65578296 1.20724869 27.98412037 C1.22803651 32.3166487 1.25619092 36.64885698 1.30175781 40.98120117 C1.34553275 45.16985361 1.36920315 49.35820011 1.37950897 53.54706383 C1.38684404 55.13731381 1.40116625 56.72754891 1.42292023 58.31766701 C1.61291121 72.79379955 -0.83262721 83.61028494 -11.15234375 94.2109375 C-42.81348871 124.28132801 -94.18556128 131.95791979 -136 136 C-136.85841995 136.08588379 -137.7168399 136.17176758 -138.60127258 136.26025391 C-146.60444468 137.00404143 -154.5551759 137.17667053 -162.58984375 137.203125 C-163.61126559 137.20736607 -163.61126559 137.20736607 -164.65332222 137.21169281 C-168.27238454 137.22658249 -171.89140821 137.23587069 -175.51049805 137.24023438 C-178.43152666 137.24457457 -181.35225247 137.2583057 -184.27319336 137.28125 C-209.38434618 137.47419942 -234.20078019 136.31082397 -258.875 131.1875 C-260.1525415 130.93033203 -261.43008301 130.67316406 -262.74633789 130.40820312 C-293.24680686 124.13996499 -330.38685496 115.3708031 -352 91 C-354.31 87.37 -356.62 83.74 -359 80 C-359.33 104.09 -359.66 128.18 -360 153 C-360.33 153 -360.66 153 -361 153 C-361.030883 140.16667695 -361.05107607 127.33335499 -361.0625 114.5 C-361.06335602 113.54521885 -361.06421204 112.5904377 -361.06509399 111.60672379 C-361.0864394 84.62950505 -360.96607269 57.66093187 -360.5 30.6875 C-360.48804218 29.99496124 -360.47608437 29.30242249 -360.46376419 28.58889771 C-360.32118352 20.39236266 -360.16749333 12.19606517 -360 4 C-358.81629943 5.77555086 -357.66489242 7.57460274 -356.58984375 9.41796875 C-342.00071593 33.87114043 -309.18516887 44.9693464 -282.93261719 51.79785156 C-277.43692434 53.1403784 -271.91886754 54.35942385 -266.37817383 55.50097656 C-264.08246113 55.98269679 -261.80028672 56.5077575 -259.515625 57.0390625 C-254.60730677 58.13386668 -249.67031395 58.83853236 -244.6875 59.5 C-243.84638672 59.61730469 -243.00527344 59.73460937 -242.13867188 59.85546875 C-239.0955925 60.26651651 -236.04893538 60.6348451 -233 61 C-232.3516922 61.0840509 -231.7033844 61.16810181 -231.03543091 61.25469971 C-214.5866876 63.35955898 -198.11688709 63.39791899 -181.5625 63.375 C-180.84641193 63.3749081 -180.13032387 63.37481621 -179.39253616 63.37472153 C-156.4057154 63.37091027 -133.72420025 62.75803121 -111 59 C-109.89285645 58.81808105 -108.78571289 58.63616211 -107.64501953 58.44873047 C-100.68606525 57.25016654 -93.84655723 55.72157786 -87 54 C-85.86691406 53.72172363 -84.73382813 53.44344727 -83.56640625 53.15673828 C-61.78687167 47.73822921 -39.46111493 41.22867683 -21 28 C-20.0925 27.35417969 -19.185 26.70835937 -18.25 26.04296875 C-8.75971396 18.88288687 -3.42566788 11.38343052 0 0 Z " fill="#0A699E" transform="translate(430,207)"/>
<path d="M0 0 C5.20311973 4.94296374 9.11431702 9.28676042 9.8125 16.6875 C9.2345296 23.50755072 7.62681722 27.70709869 2.4375 32.3125 C-3.55950272 37.21507764 -8.86779076 37.03075067 -16.5 36.375 C-21.42073821 34.8193027 -24.68932626 31.64306012 -27.5 27.375 C-29.97027731 22.04063305 -30.29576658 17.17272796 -29.5 11.375 C-27.42427818 6.21142755 -24.15396243 2.43681739 -19.5 -0.625 C-13.28539389 -2.69653537 -5.9411618 -2.75839655 0 0 Z " fill="#A1B7F9" transform="translate(405.5,265.625)"/>
<path d="M0 0 C4.18582164 4.18582164 6.50031891 8.79673386 6.875 14.75 C6.56384281 20.7553337 3.94452288 25.89357307 -0.47265625 29.953125 C-6.92972308 34.72395144 -12.60038084 34.88613076 -20.25 33.8125 C-25.81680888 31.38334704 -29.08225365 27.03443946 -32.125 21.875 C-33.59604084 15.17359171 -33.23990154 9.3071776 -29.6875 3.3125 C-20.83816797 -6.26469917 -11.17526767 -7.01702854 0 0 Z " fill="#A2B7F9" transform="translate(408.6875,341.6875)"/>
<path d="M0 0 C5.8076804 4.90426345 8.59551128 9.79331732 9.3125 17.25 C8.81435844 23.2276987 6.59987911 27.8886721 2.0625 31.875 C-3.6052385 35.80771651 -8.18148263 36.7498026 -15 36 C-21.5968904 33.91098471 -25.39905941 30.81544724 -28.8125 24.8125 C-30.5193962 19.33246483 -31.31627778 14.15798331 -29.05078125 8.72265625 C-22.44469158 -2.46810133 -11.68064714 -6.17229986 0 0 Z " fill="#A2B8FA" transform="translate(406,193)"/>
</svg>
